<svg width="30" height="20" viewBox="0 0 30 20" fill="none" xmlns="http://www.w3.org/2000/svg">
<path d="M22.8224 5.86793C21.7648 4.48852 20.3454 3.32268 18.9449 2.28866C18.0545 1.6318 17.1046 1.12806 16.0874 0.782533C15.0027 0.373708 13.8612 0.115201 12.7118 0.0307671C11.0011 -0.0957771 9.31459 0.170596 7.76579 0.782533C6.27631 1.0912 4.82725 1.62656 3.68589 2.6421C3.3998 2.89799 3.65084 3.16437 3.98003 3.25663C3.92335 3.31466 3.86398 3.37007 3.80999 3.4281C1.93197 5.08193 0.561184 7.24997 0.124168 9.68707C-0.453378 12.9101 1.01999 16.2257 3.79117 18.0562C5.34808 19.0848 7.16407 19.5543 9.01504 19.6309C10.0513 19.892 11.1171 20.0292 12.1882 19.9948C14.0986 19.9341 15.8418 19.2192 17.4661 18.2803C20.4288 16.5711 23.4132 14.213 24.0256 10.7022C24.328 8.97467 23.8989 7.26822 22.8223 5.86751L22.8224 5.86793ZM9.60893 1.31509C10.9986 1.11199 12.4314 0.995932 13.821 1.1251C11.0364 1.19623 8.28126 2.08784 6.01997 3.6941C4.64387 4.67273 3.39989 5.90707 2.5768 7.37615C2.43912 7.62138 2.32307 7.87466 2.21793 8.13315C2.37439 7.62941 2.56608 7.14142 2.79264 6.67982C3.22715 5.79628 3.79379 4.96536 4.46023 4.22161C5.93094 2.86614 7.73888 1.83471 9.60903 1.31509L9.60893 1.31509ZM3.78861 7.4452C5.38053 4.85767 8.23274 3.04826 11.1873 2.31246C12.6011 1.95905 14.0745 1.85087 15.5262 2.00117C15.7367 2.02232 16.0146 1.96167 16.1091 1.76119C17.3288 2.31245 18.4108 3.138 19.2015 4.23529C20.9338 6.64348 21.0849 9.97209 19.7601 12.5915C18.4728 15.142 15.9337 16.9646 13.125 17.6186C10.2134 18.2938 6.85147 17.6424 4.75726 15.4558C3.77776 14.4324 3.11938 13.1215 2.88725 11.7393C2.63638 10.2305 2.98721 8.74835 3.78847 7.44532L3.78861 7.4452ZM21.7243 8.2022C21.7108 8.00434 21.6892 7.80386 21.6595 7.60619C21.7648 7.95961 21.843 8.32368 21.8916 8.69283C22.1965 10.9717 21.1846 13.0793 19.6304 14.7012C21.1172 12.884 21.897 10.5918 21.7243 8.20197L21.7243 8.2022ZM6.86196 17.9799C5.4508 17.3074 4.0044 16.4448 3.07351 15.1762C2.42854 14.3005 2.05089 13.2929 1.88354 12.2457C2.62024 15.4319 5.34011 17.7029 8.54017 18.4228C9.53848 18.6471 10.5559 18.7261 11.5649 18.6709C10.7581 18.7974 9.94597 18.8528 9.13648 18.8238C8.34846 18.6128 7.58228 18.3227 6.86187 17.9798L6.86196 17.9799Z" fill="black"/>
<path d="M28.9677 0.0595087C23.4098 2.68067 18.7874 6.73298 14.5129 11.0123C13.999 11.5288 13.488 12.0478 12.977 12.5698C10.9789 10.7765 9.55492 8.42763 8.22856 6.12909C7.9645 5.67441 7.00852 6.2695 7.22656 6.71561C7.6314 7.53496 8.07067 8.3348 8.54133 9.11768C8.08208 8.59849 7.63995 8.06534 7.2121 7.51801C6.89344 7.10555 5.99206 7.64707 6.2101 8.10452C6.38531 8.46939 6.5689 8.82848 6.75839 9.18776C6.46846 9.33932 6.22724 9.68449 6.39388 9.97622C7.45028 11.8368 8.75365 13.5514 10.2638 15.0839C10.0542 15.2438 9.8447 15.4038 9.64076 15.5723C9.00632 16.097 10.1 16.7453 10.6399 16.3946C11.6132 15.7575 12.5863 15.1233 13.5568 14.4834C13.93 14.7079 14.507 14.2562 14.4726 13.8829C14.8974 13.6023 15.3224 13.3217 15.7472 13.0411C19.4248 10.9981 23.2863 9.21618 26.1797 6.11529C26.4094 5.87112 26.6276 5.61299 26.8515 5.36325C27.6612 4.76836 28.4678 4.16771 29.2687 3.55606C29.5356 3.35113 29.4639 3.0004 29.2286 2.80402C29.1165 2.71141 28.9845 2.65525 28.8496 2.62996C28.7865 2.4308 28.6946 2.23981 28.574 2.05459C28.5022 1.94227 28.393 1.86658 28.2724 1.816C28.7376 1.53817 29.2113 1.27148 29.6993 1.0303C30.469 0.64313 29.5906 -0.235361 28.9676 0.0593703L28.9677 0.0595087ZM11.7251 13.7316C11.7021 13.7485 11.6821 13.7653 11.6591 13.7794C11.5501 13.8609 11.5012 13.9674 11.4927 14.0769C11.349 13.8075 11.1567 13.5577 10.9586 13.3193C10.7577 13.078 10.5626 12.831 10.3671 12.584C10.8093 12.9796 11.263 13.3584 11.7251 13.7316L11.7251 13.7316Z" fill="#7EC636"/>
</svg>
