<svg width="52" height="47" viewBox="0 0 52 47" fill="none" xmlns="http://www.w3.org/2000/svg">
<path d="M20.4428 17.297C20.2463 17.5186 11.3098 27.5421 16.2893 25.2813C20.9277 23.1753 17.5411 21.0182 14.9817 25.146C13.6645 27.2703 29.0873 13.8502 19.3659 25.8226C14.5759 31.7218 22.408 23.6604 23.981 22.4394C31.5987 16.5266 28.9014 20.225 23.2887 23.928C17.6849 27.6253 19.4438 27.6697 24.5194 24.0634C31.333 19.2222 29.0066 20.245 24.904 25.8226C24.1046 26.9094 15.4834 37.9595 19.6736 33.5362C21.2916 31.8283 31.9661 19.3645 25.9039 26.3639C24.8027 27.6353 18.0252 32.8339 23.981 29.3411C25.1792 28.6384 34.1977 20.9892 32.288 23.6574C30.7169 25.8525 25.5731 34.67 22.7503 35.0248C19.68 35.4106 31.0984 26.9588 29.1344 29.0704C27.9218 30.3742 21.3425 37.8872 26.75 33.1302C29.4464 30.7583 30.2584 27.0568 31.6727 31.1003C32.5987 33.7477 38.5965 26.4436 36.9031 28.5291C31.9695 34.6051 31.7538 34.6078 37.0569 28.5291C42.1199 22.7257 32.1715 31.3729 30.7497 32.5889C24.9375 37.5598 30.2236 28.1739 31.442 26.4992C36.0054 20.2267 29.5584 25.869 28.9806 28.6645C28.5526 30.7355 35.3383 23.2456 35.3647 23.2514C37.8271 23.7929 34.2879 32.1152 34.2879 29.8824C34.2879 28.3706 36.7322 22.3041 36.1339 22.3041C32.638 22.3041 30.2892 25.044 27.4423 26.2962C26.7694 26.5922 29.519 16.3591 29.519 16.0791C29.519 13.9304 23.8271 22.2876 23.8271 20.1389C23.8271 17.9786 27.221 13.0583 21.9042 18.515C14.4006 26.216 25.7527 19.9586 29.8267 17.0264C30.4867 16.5513 29.7067 23.0551 30.2882 24.334C30.8473 25.5635 32.0234 23.7196 32.7496 24.1987C33.5711 24.7407 33.0784 25.2906 34.2879 25.8226" stroke="#7EC636" stroke-width="3" stroke-linecap="round"/>
<path d="M28.8084 2C41.5123 5.79965 49.5761 11.4567 49.5761 23.9905C49.5761 37.3058 40.7318 44.4775 26.0394 44.6278C17.5761 44.7144 8.84282 42.2498 4.65637 34.8843C0.475874 27.5292 0.71317 15.4544 9.11758 10.5256C14.3927 7.43194 29.2049 1.4796 32.9619 8.08968" stroke="black" stroke-width="3" stroke-linecap="round"/>
</svg>
