<svg width="1434" height="11" viewBox="0 0 1434 11" fill="none" xmlns="http://www.w3.org/2000/svg">
<path d="M2 4.00293C9.13381 4.00293 15.9749 3.99934 23 5.00293" stroke="white" stroke-width="3" stroke-linecap="round"/>
<path d="M35 6.00297C44.0686 6.00297 55.3101 4.10633 64 7.00297" stroke="white" stroke-width="3" stroke-linecap="round"/>
<path d="M72 6.00293C85.9605 6.00293 99.3329 6.48786 113 4.00293" stroke="white" stroke-width="3" stroke-linecap="round"/>
<path d="M126 6.00293C136.864 6.00293 146.563 5.61221 157 3.00293" stroke="white" stroke-width="3" stroke-linecap="round"/>
<path d="M181 5.00293C192.059 5.00293 202.965 4.00293 214 4.00293" stroke="white" stroke-width="3" stroke-linecap="round"/>
<path d="M236 2.00293H268" stroke="white" stroke-width="3" stroke-linecap="round"/>
<path d="M280 4.0029C288.695 2.3852 295.256 3.0029 304 3.0029" stroke="white" stroke-width="3" stroke-linecap="round"/>
<path d="M315 4.00293H336" stroke="white" stroke-width="3" stroke-linecap="round"/>
<path d="M349 4.00293C356.72 4.00293 364.332 3.00293 372 3.00293" stroke="white" stroke-width="3" stroke-linecap="round"/>
<path d="M384 2C393.342 4.16312 402.482 3.99706 412 3.99706" stroke="white" stroke-width="3" stroke-linecap="round"/>
<path d="M425 5.00293H449" stroke="white" stroke-width="3" stroke-linecap="round"/>
<path d="M467 7.00293H491" stroke="white" stroke-width="3" stroke-linecap="round"/>
<path d="M506 7.00293C513.872 5.91708 523.098 5.00293 531 5.00293" stroke="white" stroke-width="3" stroke-linecap="round"/>
<path d="M539 6.00293H559" stroke="white" stroke-width="3" stroke-linecap="round"/>
<path d="M572 7.00293H597" stroke="white" stroke-width="3" stroke-linecap="round"/>
<path d="M608 6.00293C618.194 7.63404 628.69 7.00293 639 7.00293" stroke="white" stroke-width="3" stroke-linecap="round"/>
<path d="M652 6.00293C660.048 6.00293 667.992 5.00293 676 5.00293" stroke="white" stroke-width="3" stroke-linecap="round"/>
<path d="M686 7.00293C696.741 5.35046 708.166 5.00293 719 5.00293" stroke="white" stroke-width="3" stroke-linecap="round"/>
<path d="M733 8.00293C740.023 7.86247 746.906 7.00293 754 7.00293" stroke="white" stroke-width="3" stroke-linecap="round"/>
<path d="M765 7.00293C771.246 7.00293 777.212 6.00293 783 6.00293" stroke="white" stroke-width="3" stroke-linecap="round"/>
<path d="M795 6.00293H812" stroke="white" stroke-width="3" stroke-linecap="round"/>
<path d="M826 6.00293C833.063 6.00293 839.908 5.00293 847 5.00293" stroke="white" stroke-width="3" stroke-linecap="round"/>
<path d="M858 6.00293H877" stroke="white" stroke-width="3" stroke-linecap="round"/>
<path d="M893 6.00293C902.242 6.00293 910.892 4.91373 920 4.00293" stroke="white" stroke-width="3" stroke-linecap="round"/>
<path d="M932 5.00293H956" stroke="white" stroke-width="3" stroke-linecap="round"/>
<path d="M972 7.00293C975.516 7.00293 990.926 8.15091 993 4.00293" stroke="white" stroke-width="3" stroke-linecap="round"/>
<path d="M1005 7.00293C1012.4 6.89412 1019.67 5.00293 1027 5.00293" stroke="white" stroke-width="3" stroke-linecap="round"/>
<path d="M1039 6.00293H1058" stroke="white" stroke-width="3" stroke-linecap="round"/>
<path d="M1069 7.00293C1076.41 7.00293 1083.87 6.00293 1091 6.00293" stroke="white" stroke-width="3" stroke-linecap="round"/>
<path d="M1100 6.00293H1124" stroke="white" stroke-width="3" stroke-linecap="round"/>
<path d="M1135 7.00293C1143.75 7.00293 1152.18 6.00293 1161 6.00293" stroke="white" stroke-width="3" stroke-linecap="round"/>
<path d="M1172 7.00293C1179.05 7.00293 1186.09 6.00293 1193 6.00293" stroke="white" stroke-width="3" stroke-linecap="round"/>
<path d="M1204 8.00293H1223" stroke="white" stroke-width="3" stroke-linecap="round"/>
<path d="M1231 9.00293H1251" stroke="white" stroke-width="3" stroke-linecap="round"/>
<path d="M1260 9.00293H1281" stroke="white" stroke-width="3" stroke-linecap="round"/>
<path d="M1290 9.00293H1309" stroke="white" stroke-width="3" stroke-linecap="round"/>
<path d="M1322 9.00293H1334" stroke="white" stroke-width="3" stroke-linecap="round"/>
<path d="M1341 8.00293H1360" stroke="white" stroke-width="3" stroke-linecap="round"/>
<path d="M1368 8.00293H1388" stroke="white" stroke-width="3" stroke-linecap="round"/>
<path d="M1397 8.00293L1408 9.00293" stroke="white" stroke-width="3" stroke-linecap="round"/>
<path d="M1415 7.00293L1432 9.00293" stroke="white" stroke-width="3" stroke-linecap="round"/>
</svg>
